<svg xmlns="http://www.w3.org/2000/svg" xmlns:xlink="http://www.w3.org/1999/xlink" width="1510" height="282.23"><rect width="1510" height="282.23" rx="0" ry="0" class="a"/><svg height="282.23" viewBox="0 0 151 28.223" width="1510" xmlns="http://www.w3.org/2000/svg" xmlns:xlink="http://www.w3.org/1999/xlink"><style>@keyframes l{0%{transform:translateX(0)}28.9%{transform:translateX(-302px)}31.4%{transform:translateX(-604px)}41.7%{transform:translateX(-3926px)}41.8%{transform:translateX(-5134px)}50.1%{transform:translateX(-5738px)}55.6%{transform:translateX(-6040px)}56.5%{transform:translateX(-6644px)}57.4%{transform:translateX(-6946px)}58.3%{transform:translateX(-7399px)}59.5%{transform:translateX(-7852px)}60.4%{transform:translateX(-8305px)}61.2%{transform:translateX(-8607px)}62.1%{transform:translateX(-8909px)}63%{transform:translateX(-9211px)}63.9%{transform:translateX(-9513px)}64.8%{transform:translateX(-9815px)}65.7%{transform:translateX(-10117px)}66.6%{transform:translateX(-10570px)}67.5%{transform:translateX(-10872px)}67.6%{transform:translateX(-11325px)}67.7%{transform:translateX(-11476px)}67.9%{transform:translateX(-11929px)}69.6%{transform:translateX(-12231px)}to{transform:translateX(-12382px)}}.a{fill:#282d35}.c{fill:#5faf5f;font-weight:700}.d{fill:#6c6c6c}.e{fill:#b9c0cb}.f{fill:#66c2cd}.g,.i{fill:#b9c0cb;font-weight:700}.i{fill:#a8cc8c}</style><g font-size="1.67" font-family="Monaco,Consolas,Menlo,'Bitstream Vera Sans Mono','Powerline Symbols',monospace"><defs><symbol id="1"><text y="1.67" class="c">❯</text><text x="115.23" y="1.67" class="d">mbox-attachment-extract/git/master</text></symbol><symbol id="2"><text y="1.67" class="c">❯</text><text x="2.004" y="1.67" class="e">node</text><text x="115.23" y="1.67" class="d">mbox-attachment-extract/git/master</text></symbol><symbol id="3"><text y="1.67" class="c">❯</text><text x="2.004" y="1.67" class="e">node</text><text x="7.014" y="1.67" class="e">.</text><text x="115.23" y="1.67" class="d">mbox-attachment-extract/git/master</text></symbol><symbol id="4"><text y="1.67" class="c">❯</text><text x="2.004" y="1.67" class="e">node</text><text x="7.014" y="1.67" class="e">.</text><text x="9.018" y="1.67" class="e">tests/sample.mbox</text><text x="115.23" y="1.67" class="d">mbox-attachment-extract/git/master</text></symbol><symbol id="5"><text y="1.67" class="c">❯</text><text x="2.004" y="1.67" class="e">node</text><text x="7.014" y="1.67" class="e">.</text><text x="9.018" y="1.67" class="e">tests/sample.mbox</text><text x="27.054" y="1.67" class="e">./att</text><text x="115.23" y="1.67" class="d">mbox-attachment-extract/git/master</text></symbol><symbol id="6"><text y="1.67" class="f">⠋</text><text x="2.004" y="1.67" class="g">mbox-attachment-extract</text></symbol><symbol id="7"><text x="2.004" y="1.67" class="f">EMAIL:</text><text x="9.018" y="1.67" class="e">1</text></symbol><symbol id="8"><text x="2.004" y="1.67" class="f">ATTACHMENTS:</text><text x="15.03" y="1.67" class="e">0</text></symbol><symbol id="9"><text y="1.67" class="f">⠙</text><text x="2.004" y="1.67" class="g">mbox-attachment-extract</text></symbol><symbol id="10"><text y="1.67" class="f">⠹</text><text x="2.004" y="1.67" class="g">mbox-attachment-extract</text></symbol><symbol id="11"><text y="1.67" class="f">⠸</text><text x="2.004" y="1.67" class="g">mbox-attachment-extract</text></symbol><symbol id="12"><text y="1.67" class="f">⠼</text><text x="2.004" y="1.67" class="g">mbox-attachment-extract</text></symbol><symbol id="13"><text y="1.67" class="f">⠴</text><text x="2.004" y="1.67" class="g">mbox-attachment-extract</text></symbol><symbol id="14"><text x="2.004" y="1.67" class="f">EMAIL:</text><text x="9.018" y="1.67" class="e">8</text></symbol><symbol id="15"><text x="2.004" y="1.67" class="f">ATTACHMENTS:</text><text x="15.03" y="1.67" class="e">2</text></symbol><symbol id="16"><text y="1.67" class="f">⠦</text><text x="2.004" y="1.67" class="g">mbox-attachment-extract</text></symbol><symbol id="17"><text x="2.004" y="1.67" class="f">ATTACHMENTS:</text><text x="15.03" y="1.67" class="e">3</text></symbol><symbol id="18"><text y="1.67" class="f">⠧</text><text x="2.004" y="1.67" class="g">mbox-attachment-extract</text></symbol><symbol id="19"><text y="1.67" class="f">⠇</text><text x="2.004" y="1.67" class="g">mbox-attachment-extract</text></symbol><symbol id="20"><text x="2.004" y="1.67" class="f">ATTACHMENTS:</text><text x="15.03" y="1.67" class="e">4</text></symbol><symbol id="21"><text y="1.67" class="f">⠏</text><text x="2.004" y="1.67" class="g">mbox-attachment-extract</text></symbol><symbol id="22"><text x="2.004" y="1.67" class="f">ATTACHMENTS:</text><text x="15.03" y="1.67" class="e">5</text></symbol><symbol id="23"><text x="2.004" y="1.67" class="f">ATTACHMENTS:</text><text x="15.03" y="1.67" class="e">6</text></symbol><symbol id="24"><text y="1.67" fill="#a8cc8c">✔</text><text x="2.004" y="1.67" class="i">All</text><text x="6.012" y="1.67" class="i">files</text><text x="12.024" y="1.67" class="i">extracted!</text></symbol><symbol id="25"><text x="2.004" y="1.67" class="e">Total</text><text x="8.016" y="1.67" class="e">email</text><text x="14.028" y="1.67" class="e">parsed:</text><text x="22.044" y="1.67" class="g">8</text></symbol><symbol id="26"><text x="2.004" y="1.67" class="e">Total</text><text x="8.016" y="1.67" class="e">files</text><text x="14.028" y="1.67" class="e">extracted:</text><text x="25.05" y="1.67" class="g">7</text></symbol><symbol id="a"><path fill="transparent" d="M0 0h151v13H0z"/></symbol><symbol id="b"><path fill="#6f7683" d="M0 0h1.102v2.171H0z"/></symbol></defs><path class="a" d="M0 0h151v28.223H0z"/><g style="animation-duration:9.180729s;animation-iteration-count:infinite;animation-name:l;animation-timing-function:steps(1,end)"><svg width="12533"><svg><use xlink:href="#a"/><use xlink:href="#b" x="-.004"/></svg><svg x="151"><use xlink:href="#a"/><use xlink:href="#b" x="-.004"/></svg><svg x="302"><use xlink:href="#a"/><use xlink:href="#b" x="-.004"/></svg><svg x="453"><use xlink:href="#a"/><use xlink:href="#b" x="1.996"/><use xlink:href="#1"/></svg><svg x="604"><use xlink:href="#a"/><use xlink:href="#b" x="1.996"/><use xlink:href="#1"/></svg><svg x="755"><use xlink:href="#a"/><use xlink:href="#b" x="2.996"/><text y="1.67" class="c">❯</text><text x="2.004" y="1.67" class="e">n</text><text x="115.23" y="1.67" class="d">mbox-attachment-extract/git/master</text></svg><svg x="906"><use xlink:href="#a"/><use xlink:href="#b" x="3.996"/><text y="1.67" class="c">❯</text><text x="2.004" y="1.67" class="e">no</text><text x="115.23" y="1.67" class="d">mbox-attachment-extract/git/master</text></svg><svg x="1057"><use xlink:href="#a"/><use xlink:href="#b" x="4.996"/><text y="1.67" class="c">❯</text><text x="2.004" y="1.67" class="e">nod</text><text x="115.23" y="1.67" class="d">mbox-attachment-extract/git/master</text></svg><svg x="1208"><use xlink:href="#a"/><use xlink:href="#b" x="5.996"/><use xlink:href="#2"/></svg><svg x="1359"><use xlink:href="#a"/><use xlink:href="#b" x="6.996"/><use xlink:href="#2"/></svg><svg x="1510"><use xlink:href="#a"/><use xlink:href="#b" x="7.996"/><use xlink:href="#3"/></svg><svg x="1661"><use xlink:href="#a"/><use xlink:href="#b" x="8.996"/><use xlink:href="#3"/></svg><svg x="1812"><use xlink:href="#a"/><use xlink:href="#b" x="9.996"/><text y="1.67" class="c">❯</text><text x="2.004" y="1.67" class="e">node</text><text x="7.014" y="1.67" class="e">.</text><text x="9.018" y="1.67" class="e">t</text><text x="115.23" y="1.67" class="d">mbox-attachment-extract/git/master</text></svg><svg x="1963"><use xlink:href="#a"/><use xlink:href="#b" x="10.996"/><text y="1.67" class="c">❯</text><text x="2.004" y="1.67" class="e">node</text><text x="7.014" y="1.67" class="e">.</text><text x="9.018" y="1.67" class="e">te</text><text x="115.23" y="1.67" class="d">mbox-attachment-extract/git/master</text></svg><svg x="2114"><use xlink:href="#a"/><use xlink:href="#b" x="11.996"/><text y="1.67" class="c">❯</text><text x="2.004" y="1.67" class="e">node</text><text x="7.014" y="1.67" class="e">.</text><text x="9.018" y="1.67" class="e">tes</text><text x="115.23" y="1.67" class="d">mbox-attachment-extract/git/master</text></svg><svg x="2265"><use xlink:href="#a"/><use xlink:href="#b" x="12.996"/><text y="1.67" class="c">❯</text><text x="2.004" y="1.67" class="e">node</text><text x="7.014" y="1.67" class="e">.</text><text x="9.018" y="1.67" class="e">test</text><text x="115.23" y="1.67" class="d">mbox-attachment-extract/git/master</text></svg><svg x="2416"><use xlink:href="#a"/><use xlink:href="#b" x="13.996"/><text y="1.67" class="c">❯</text><text x="2.004" y="1.67" class="e">node</text><text x="7.014" y="1.67" class="e">.</text><text x="9.018" y="1.67" class="e">tests</text><text x="115.23" y="1.67" class="d">mbox-attachment-extract/git/master</text></svg><svg x="2567"><use xlink:href="#a"/><use xlink:href="#b" x="14.996"/><text y="1.67" class="c">❯</text><text x="2.004" y="1.67" class="e">node</text><text x="7.014" y="1.67" class="e">.</text><text x="9.018" y="1.67" class="e">tests/</text><text x="115.23" y="1.67" class="d">mbox-attachment-extract/git/master</text></svg><svg x="2718"><use xlink:href="#a"/><use xlink:href="#b" x="15.996"/><text y="1.67" class="c">❯</text><text x="2.004" y="1.67" class="e">node</text><text x="7.014" y="1.67" class="e">.</text><text x="9.018" y="1.67" class="e">tests/s</text><text x="115.23" y="1.67" class="d">mbox-attachment-extract/git/master</text></svg><svg x="2869"><use xlink:href="#a"/><use xlink:href="#b" x="16.996"/><text y="1.67" class="c">❯</text><text x="2.004" y="1.67" class="e">node</text><text x="7.014" y="1.67" class="e">.</text><text x="9.018" y="1.67" class="e">tests/sa</text><text x="115.23" y="1.67" class="d">mbox-attachment-extract/git/master</text></svg><svg x="3020"><use xlink:href="#a"/><use xlink:href="#b" x="17.996"/><text y="1.67" class="c">❯</text><text x="2.004" y="1.67" class="e">node</text><text x="7.014" y="1.67" class="e">.</text><text x="9.018" y="1.67" class="e">tests/sam</text><text x="115.23" y="1.67" class="d">mbox-attachment-extract/git/master</text></svg><svg x="3171"><use xlink:href="#a"/><use xlink:href="#b" x="18.996"/><text y="1.67" class="c">❯</text><text x="2.004" y="1.67" class="e">node</text><text x="7.014" y="1.67" class="e">.</text><text x="9.018" y="1.67" class="e">tests/samp</text><text x="115.23" y="1.67" class="d">mbox-attachment-extract/git/master</text></svg><svg x="3322"><use xlink:href="#a"/><use xlink:href="#b" x="19.996"/><text y="1.67" class="c">❯</text><text x="2.004" y="1.67" class="e">node</text><text x="7.014" y="1.67" class="e">.</text><text x="9.018" y="1.67" class="e">tests/sampl</text><text x="115.23" y="1.67" class="d">mbox-attachment-extract/git/master</text></svg><svg x="3473"><use xlink:href="#a"/><use xlink:href="#b" x="20.996"/><text y="1.67" class="c">❯</text><text x="2.004" y="1.67" class="e">node</text><text x="7.014" y="1.67" class="e">.</text><text x="9.018" y="1.67" class="e">tests/sample</text><text x="115.23" y="1.67" class="d">mbox-attachment-extract/git/master</text></svg><svg x="3624"><use xlink:href="#a"/><use xlink:href="#b" x="21.996"/><text y="1.67" class="c">❯</text><text x="2.004" y="1.67" class="e">node</text><text x="7.014" y="1.67" class="e">.</text><text x="9.018" y="1.67" class="e">tests/sample.</text><text x="115.23" y="1.67" class="d">mbox-attachment-extract/git/master</text></svg><svg x="3775"><use xlink:href="#a"/><use xlink:href="#b" x="22.996"/><text y="1.67" class="c">❯</text><text x="2.004" y="1.67" class="e">node</text><text x="7.014" y="1.67" class="e">.</text><text x="9.018" y="1.67" class="e">tests/sample.m</text><text x="115.23" y="1.67" class="d">mbox-attachment-extract/git/master</text></svg><svg x="3926"><use xlink:href="#a"/><use xlink:href="#b" x="23.996"/><text y="1.67" class="c">❯</text><text x="2.004" y="1.67" class="e">node</text><text x="7.014" y="1.67" class="e">.</text><text x="9.018" y="1.67" class="e">tests/sample.mb</text><text x="115.23" y="1.67" class="d">mbox-attachment-extract/git/master</text></svg><svg x="4077"><use xlink:href="#a"/><use xlink:href="#b" x="24.996"/><text y="1.67" class="c">❯</text><text x="2.004" y="1.67" class="e">node</text><text x="7.014" y="1.67" class="e">.</text><text x="9.018" y="1.67" class="e">tests/sample.mbo</text><text x="115.23" y="1.67" class="d">mbox-attachment-extract/git/master</text></svg><svg x="4228"><use xlink:href="#a"/><use xlink:href="#b" x="25.996"/><use xlink:href="#4"/></svg><svg x="4379"><use xlink:href="#a"/><use xlink:href="#b" x="26.996"/><use xlink:href="#4"/></svg><svg x="4530"><use xlink:href="#a"/><use xlink:href="#b" x="27.996"/><text y="1.67" class="c">❯</text><text x="2.004" y="1.67" class="e">node</text><text x="7.014" y="1.67" class="e">.</text><text x="9.018" y="1.67" class="e">tests/sample.mbox</text><text x="27.054" y="1.67" class="e">.</text><text x="115.23" y="1.67" class="d">mbox-attachment-extract/git/master</text></svg><svg x="4681"><use xlink:href="#a"/><use xlink:href="#b" x="28.996"/><text y="1.67" class="c">❯</text><text x="2.004" y="1.67" class="e">node</text><text x="7.014" y="1.67" class="e">.</text><text x="9.018" y="1.67" class="e">tests/sample.mbox</text><text x="27.054" y="1.67" class="e">./</text><text x="115.23" y="1.67" class="d">mbox-attachment-extract/git/master</text></svg><svg x="4832"><use xlink:href="#a"/><use xlink:href="#b" x="29.996"/><text y="1.67" class="c">❯</text><text x="2.004" y="1.67" class="e">node</text><text x="7.014" y="1.67" class="e">.</text><text x="9.018" y="1.67" class="e">tests/sample.mbox</text><text x="27.054" y="1.67" class="e">./a</text><text x="115.23" y="1.67" class="d">mbox-attachment-extract/git/master</text></svg><svg x="4983"><use xlink:href="#a"/><use xlink:href="#b" x="30.996"/><text y="1.67" class="c">❯</text><text x="2.004" y="1.67" class="e">node</text><text x="7.014" y="1.67" class="e">.</text><text x="9.018" y="1.67" class="e">tests/sample.mbox</text><text x="27.054" y="1.67" class="e">./at</text><text x="115.23" y="1.67" class="d">mbox-attachment-extract/git/master</text></svg><svg x="5134"><use xlink:href="#a"/><use xlink:href="#b" x="31.996"/><use xlink:href="#5"/></svg><svg x="5285"><use xlink:href="#a"/><use xlink:href="#b" x="31.996"/><use xlink:href="#5"/></svg><svg x="5436"><use xlink:href="#a"/><use xlink:href="#b" x="-.004" y="2.146"/><use xlink:href="#5"/></svg><svg x="5587"><use xlink:href="#a"/><use xlink:href="#b" x="-.004" y="2.146"/><use xlink:href="#5"/></svg><svg x="5738"><use xlink:href="#a"/><use xlink:href="#b" x="-.004" y="2.146"/><use xlink:href="#5"/></svg><svg x="5889"><use xlink:href="#a"/><use xlink:href="#5"/></svg><svg x="6040"><use xlink:href="#a"/><use xlink:href="#5"/><use xlink:href="#6" y="2.171"/><use xlink:href="#7" y="4.342"/><use xlink:href="#8" y="6.513"/></svg><svg x="6191"><use xlink:href="#a"/><use xlink:href="#5"/><use xlink:href="#6" y="2.171"/><use xlink:href="#7" y="4.342"/><use xlink:href="#8" y="6.513"/></svg><svg x="6342"><use xlink:href="#a"/><use xlink:href="#5"/><use xlink:href="#6" y="2.171"/><use xlink:href="#7" y="4.342"/><use xlink:href="#8" y="6.513"/></svg><svg x="6493"><use xlink:href="#a"/><use xlink:href="#5"/><use xlink:href="#6" y="2.171"/></svg><svg x="6644"><use xlink:href="#a"/><use xlink:href="#5"/><use xlink:href="#9" y="2.171"/><use xlink:href="#7" y="4.342"/><use xlink:href="#8" y="6.513"/></svg><svg x="6795"><use xlink:href="#a"/><use xlink:href="#5"/><use xlink:href="#9" y="2.171"/><use xlink:href="#7" y="4.342"/></svg><svg x="6946"><use xlink:href="#a"/><use xlink:href="#5"/><use xlink:href="#10" y="2.171"/><use xlink:href="#7" y="4.342"/><use xlink:href="#8" y="6.513"/></svg><svg x="7097"><use xlink:href="#a"/><use xlink:href="#5"/><use xlink:href="#10" y="2.171"/><use xlink:href="#7" y="4.342"/><use xlink:href="#8" y="6.513"/></svg><svg x="7248"><use xlink:href="#a"/><use xlink:href="#5"/></svg><svg x="7399"><use xlink:href="#a"/><use xlink:href="#5"/><use xlink:href="#11" y="2.171"/><use xlink:href="#7" y="4.342"/><use xlink:href="#8" y="6.513"/></svg><svg x="7550"><use xlink:href="#a"/><use xlink:href="#5"/><use xlink:href="#11" y="2.171"/><use xlink:href="#7" y="4.342"/><use xlink:href="#8" y="6.513"/></svg><svg x="7701"><use xlink:href="#a"/><use xlink:href="#5"/></svg><svg x="7852"><use xlink:href="#a"/><use xlink:href="#5"/><use xlink:href="#12" y="2.171"/><use xlink:href="#7" y="4.342"/><use xlink:href="#8" y="6.513"/></svg><svg x="8003"><use xlink:href="#a"/><use xlink:href="#5"/><use xlink:href="#12" y="2.171"/><use xlink:href="#7" y="4.342"/><use xlink:href="#8" y="6.513"/></svg><svg x="8154"><use xlink:href="#a"/><use xlink:href="#5"/><use xlink:href="#13" y="2.171"/></svg><svg x="8305"><use xlink:href="#a"/><use xlink:href="#5"/><use xlink:href="#13" y="2.171"/><use xlink:href="#14" y="4.342"/><use xlink:href="#15" y="6.513"/></svg><svg x="8456"><use xlink:href="#a"/><use xlink:href="#5"/><use xlink:href="#13" y="2.171"/><use xlink:href="#14" y="4.342"/><use xlink:href="#15" y="6.513"/></svg><svg x="8607"><use xlink:href="#a"/><use xlink:href="#5"/><use xlink:href="#16" y="2.171"/><use xlink:href="#14" y="4.342"/><use xlink:href="#17" y="6.513"/></svg><svg x="8758"><use xlink:href="#a"/><use xlink:href="#5"/><use xlink:href="#16" y="2.171"/><use xlink:href="#14" y="4.342"/><use xlink:href="#17" y="6.513"/></svg><svg x="8909"><use xlink:href="#a"/><use xlink:href="#5"/><use xlink:href="#18" y="2.171"/><use xlink:href="#14" y="4.342"/><use xlink:href="#17" y="6.513"/></svg><svg x="9060"><use xlink:href="#a"/><use xlink:href="#5"/><use xlink:href="#18" y="2.171"/><use xlink:href="#14" y="4.342"/><use xlink:href="#17" y="6.513"/></svg><svg x="9211"><use xlink:href="#a"/><use xlink:href="#5"/><use xlink:href="#19" y="2.171"/><use xlink:href="#14" y="4.342"/><use xlink:href="#20" y="6.513"/></svg><svg x="9362"><use xlink:href="#a"/><use xlink:href="#5"/><use xlink:href="#19" y="2.171"/><use xlink:href="#14" y="4.342"/><use xlink:href="#20" y="6.513"/></svg><svg x="9513"><use xlink:href="#a"/><use xlink:href="#5"/><use xlink:href="#21" y="2.171"/><use xlink:href="#14" y="4.342"/><use xlink:href="#22" y="6.513"/></svg><svg x="9664"><use xlink:href="#a"/><use xlink:href="#5"/><use xlink:href="#21" y="2.171"/><use xlink:href="#14" y="4.342"/><use xlink:href="#22" y="6.513"/></svg><svg x="9815"><use xlink:href="#a"/><use xlink:href="#5"/><use xlink:href="#6" y="2.171"/><use xlink:href="#14" y="4.342"/><use xlink:href="#23" y="6.513"/></svg><svg x="9966"><use xlink:href="#a"/><use xlink:href="#5"/><use xlink:href="#6" y="2.171"/><use xlink:href="#14" y="4.342"/><use xlink:href="#23" y="6.513"/></svg><svg x="10117"><use xlink:href="#a"/><use xlink:href="#5"/><use xlink:href="#9" y="2.171"/><use xlink:href="#14" y="4.342"/><use xlink:href="#23" y="6.513"/></svg><svg x="10268"><use xlink:href="#a"/><use xlink:href="#5"/><use xlink:href="#9" y="2.171"/><use xlink:href="#14" y="4.342"/><use xlink:href="#23" y="6.513"/></svg><svg x="10419"><use xlink:href="#a"/><use xlink:href="#5"/></svg><svg x="10570"><use xlink:href="#a"/><use xlink:href="#5"/><use xlink:href="#10" y="2.171"/><use xlink:href="#14" y="4.342"/><use xlink:href="#23" y="6.513"/></svg><svg x="10721"><use xlink:href="#a"/><use xlink:href="#5"/><use xlink:href="#10" y="2.171"/><use xlink:href="#14" y="4.342"/></svg><svg x="10872"><use xlink:href="#a"/><use xlink:href="#5"/><use xlink:href="#11" y="2.171"/><use xlink:href="#14" y="4.342"/><use xlink:href="#23" y="6.513"/></svg><svg x="11023"><use xlink:href="#a"/><use xlink:href="#5"/><use xlink:href="#11" y="2.171"/><use xlink:href="#14" y="4.342"/><use xlink:href="#23" y="6.513"/></svg><svg x="11174"><use xlink:href="#a"/><use xlink:href="#5"/></svg><svg x="11325"><use xlink:href="#a"/><use xlink:href="#b" x="-.004" y="10.83"/><use xlink:href="#5"/><use xlink:href="#24" y="2.171"/><use xlink:href="#25" y="4.342"/><use xlink:href="#26" y="6.513"/></svg><svg x="11476"><use xlink:href="#a"/><use xlink:href="#b" x="-.004" y="10.83"/><use xlink:href="#5"/><use xlink:href="#24" y="2.171"/><use xlink:href="#25" y="4.342"/><use xlink:href="#26" y="6.513"/></svg><svg x="11627"><use xlink:href="#a"/><use xlink:href="#b" x="-.004" y="10.83"/><use xlink:href="#5"/><use xlink:href="#24" y="2.171"/><use xlink:href="#25" y="4.342"/><use xlink:href="#26" y="6.513"/></svg><svg x="11778"><use xlink:href="#a"/><use xlink:href="#b" x="-.004" y="10.83"/><use xlink:href="#5"/><use xlink:href="#24" y="2.171"/><use xlink:href="#25" y="4.342"/><use xlink:href="#26" y="6.513"/></svg><svg x="11929"><use xlink:href="#a"/><use xlink:href="#b" x="-.004" y="10.83"/><use xlink:href="#5"/><use xlink:href="#24" y="2.171"/><use xlink:href="#25" y="4.342"/><use xlink:href="#26" y="6.513"/></svg><svg x="12080"><use xlink:href="#a"/><use xlink:href="#b" x="1.996" y="10.83"/><use xlink:href="#5"/><use xlink:href="#24" y="2.171"/><use xlink:href="#25" y="4.342"/><use xlink:href="#26" y="6.513"/><use xlink:href="#1" y="10.855"/></svg><svg x="12231"><use xlink:href="#a"/><use xlink:href="#b" x="1.996" y="10.83"/><use xlink:href="#5"/><use xlink:href="#24" y="2.171"/><use xlink:href="#25" y="4.342"/><use xlink:href="#26" y="6.513"/><use xlink:href="#1" y="10.855"/></svg><svg x="12382"><use xlink:href="#a"/><use xlink:href="#b" x="-.004" y="13.001"/><use xlink:href="#5"/><use xlink:href="#24" y="2.171"/><use xlink:href="#25" y="4.342"/><use xlink:href="#26" y="6.513"/><use xlink:href="#1" y="10.855"/></svg></svg></g></g></svg></svg>