<svg xmlns="http://www.w3.org/2000/svg" xmlns:xlink="http://www.w3.org/1999/xlink" width="1620" height="390.78"><rect width="1620" height="390.78" rx="0" ry="0" class="a"/><svg height="390.78" viewBox="0 0 162 39.078" width="1620" xmlns="http://www.w3.org/2000/svg" xmlns:xlink="http://www.w3.org/1999/xlink"><style>@keyframes l{0%{transform:translateX(0)}38.5%{transform:translateX(-324px)}41.8%{transform:translateX(-648px)}47.7%{transform:translateX(-3078px)}47.8%{transform:translateX(-5184px)}47.9%{transform:translateX(-5346px)}59%{transform:translateX(-5670px)}59.1%{transform:translateX(-5832px)}65.5%{transform:translateX(-6156px)}66.6%{transform:translateX(-6318px)}67.5%{transform:translateX(-6966px)}69.7%{transform:translateX(-7452px)}78.2%{transform:translateX(-7938px)}79.7%{transform:translateX(-8262px)}80.7%{transform:translateX(-8586px)}81.7%{transform:translateX(-8910px)}82.7%{transform:translateX(-9396px)}83.6%{transform:translateX(-9720px)}83.7%{transform:translateX(-9882px)}84.6%{transform:translateX(-10206px)}85.6%{transform:translateX(-10692px)}86.6%{transform:translateX(-11178px)}87.4%{transform:translateX(-11826px)}87.7%{transform:translateX(-11988px)}87.8%{transform:translateX(-12150px)}90.2%{transform:translateX(-12474px)}to{transform:translateX(-12636px)}}.a{fill:#282d35}.c{fill:#5faf5f;font-weight:700}.d{fill:#6c6c6c}.e{fill:#b9c0cb}.f{fill:#66c2cd}.g,.i{fill:#b9c0cb;font-weight:700}.i{fill:#a8cc8c}</style><g font-size="1.67" font-family="Monaco,Consolas,Menlo,'Bitstream Vera Sans Mono','Powerline Symbols',monospace"><defs><symbol id="1"><text y="1.67" class="c">❯</text><text x="126.252" y="1.67" class="d">mbox-attachment-extract/git/master</text></symbol><symbol id="2"><text y="1.67" class="c">❯</text><text x="2.004" y="1.67" class="e">node</text><text x="126.252" y="1.67" class="d">mbox-attachment-extract/git/master</text></symbol><symbol id="3"><text y="1.67" class="c">❯</text><text x="2.004" y="1.67" class="e">node</text><text x="7.014" y="1.67" class="e">.</text><text x="9.018" y="1.67" class="e">tests/sample.mbox</text><text x="126.252" y="1.67" class="d">mbox-attachment-extract/git/master</text></symbol><symbol id="4"><text y="1.67" class="c">❯</text><text x="2.004" y="1.67" class="e">node</text><text x="7.014" y="1.67" class="e">.</text><text x="9.018" y="1.67" class="e">tests/sample.mbox</text><text x="27.054" y="1.67" class="e">./att</text><text x="126.252" y="1.67" class="d">mbox-attachment-extract/git/master</text></symbol><symbol id="5"><text y="1.67" class="f">⠋</text><text x="2.004" y="1.67" class="g">mbox-attachment-extract</text></symbol><symbol id="6"><text x="2.004" y="1.67" class="f">EMAIL:</text><text x="9.018" y="1.67" class="e">1</text></symbol><symbol id="7"><text x="2.004" y="1.67" class="f">ATTACHMENTS:</text><text x="15.03" y="1.67" class="e">0</text></symbol><symbol id="8"><text y="1.67" class="f">⠙</text><text x="2.004" y="1.67" class="g">mbox-attachment-extract</text></symbol><symbol id="9"><text y="1.67" class="f">⠹</text><text x="2.004" y="1.67" class="g">mbox-attachment-extract</text></symbol><symbol id="10"><text y="1.67" class="f">⠸</text><text x="2.004" y="1.67" class="g">mbox-attachment-extract</text></symbol><symbol id="11"><text y="1.67" class="f">⠼</text><text x="2.004" y="1.67" class="g">mbox-attachment-extract</text></symbol><symbol id="12"><text x="2.004" y="1.67" class="f">EMAIL:</text><text x="9.018" y="1.67" class="e">8</text></symbol><symbol id="13"><text x="2.004" y="1.67" class="f">ATTACHMENTS:</text><text x="15.03" y="1.67" class="e">1</text></symbol><symbol id="14"><text y="1.67" class="f">⠴</text><text x="2.004" y="1.67" class="g">mbox-attachment-extract</text></symbol><symbol id="15"><text y="1.67" class="f">⠦</text><text x="2.004" y="1.67" class="g">mbox-attachment-extract</text></symbol><symbol id="16"><text x="2.004" y="1.67" class="f">ATTACHMENTS:</text><text x="15.03" y="1.67" class="e">3</text></symbol><symbol id="17"><text y="1.67" class="f">⠧</text><text x="2.004" y="1.67" class="g">mbox-attachment-extract</text></symbol><symbol id="18"><text y="1.67" class="f">⠇</text><text x="2.004" y="1.67" class="g">mbox-attachment-extract</text></symbol><symbol id="19"><text x="2.004" y="1.67" class="f">ATTACHMENTS:</text><text x="15.03" y="1.67" class="e">4</text></symbol><symbol id="20"><text y="1.67" class="f">⠏</text><text x="2.004" y="1.67" class="g">mbox-attachment-extract</text></symbol><symbol id="21"><text x="2.004" y="1.67" class="f">ATTACHMENTS:</text><text x="15.03" y="1.67" class="e">5</text></symbol><symbol id="22"><text x="2.004" y="1.67" class="f">ATTACHMENTS:</text><text x="15.03" y="1.67" class="e">6</text></symbol><symbol id="23"><text y="1.67" fill="#a8cc8c">✔</text><text x="2.004" y="1.67" class="i">All</text><text x="6.012" y="1.67" class="i">files</text><text x="12.024" y="1.67" class="i">extracted!</text></symbol><symbol id="24"><text x="2.004" y="1.67" class="e">Total</text><text x="8.016" y="1.67" class="e">email</text><text x="14.028" y="1.67" class="e">parsed:</text><text x="22.044" y="1.67" class="g">8</text></symbol><symbol id="25"><text x="2.004" y="1.67" class="e">Total</text><text x="8.016" y="1.67" class="e">files</text><text x="14.028" y="1.67" class="e">extracted:</text><text x="25.05" y="1.67" class="g">7</text></symbol><symbol id="a"><path fill="transparent" d="M0 0h162v18H0z"/></symbol><symbol id="b"><path fill="#6f7683" d="M0 0h1.102v2.171H0z"/></symbol></defs><path class="a" d="M0 0h162v39.078H0z"/><g style="animation-duration:8.13203s;animation-iteration-count:infinite;animation-name:l;animation-timing-function:steps(1,end)"><svg width="12798"><svg><use xlink:href="#a"/><use xlink:href="#b" x="-.004"/></svg><svg x="162"><use xlink:href="#a"/><use xlink:href="#b" x="-.004"/></svg><svg x="324"><use xlink:href="#a"/><use xlink:href="#b" x="-.004"/></svg><svg x="486"><use xlink:href="#a"/><use xlink:href="#b" x="1.996"/><use xlink:href="#1"/></svg><svg x="648"><use xlink:href="#a"/><use xlink:href="#b" x="1.996"/><use xlink:href="#1"/></svg><svg x="810"><use xlink:href="#a"/><use xlink:href="#b" x="2.996"/><text y="1.67" class="c">❯</text><text x="2.004" y="1.67" class="e">n</text><text x="126.252" y="1.67" class="d">mbox-attachment-extract/git/master</text></svg><svg x="972"><use xlink:href="#a"/><use xlink:href="#b" x="3.996"/><text y="1.67" class="c">❯</text><text x="2.004" y="1.67" class="e">no</text><text x="126.252" y="1.67" class="d">mbox-attachment-extract/git/master</text></svg><svg x="1134"><use xlink:href="#a"/><use xlink:href="#b" x="4.996"/><text y="1.67" class="c">❯</text><text x="2.004" y="1.67" class="e">nod</text><text x="126.252" y="1.67" class="d">mbox-attachment-extract/git/master</text></svg><svg x="1296"><use xlink:href="#a"/><use xlink:href="#b" x="5.996"/><use xlink:href="#2"/></svg><svg x="1458"><use xlink:href="#a"/><use xlink:href="#b" x="6.996"/><use xlink:href="#2"/></svg><svg x="1620"><use xlink:href="#a"/><use xlink:href="#b" x="8.996"/><text y="1.67" class="c">❯</text><text x="2.004" y="1.67" class="e">node</text><text x="7.014" y="1.67" class="e">.</text><text x="126.252" y="1.67" class="d">mbox-attachment-extract/git/master</text></svg><svg x="1782"><use xlink:href="#a"/><use xlink:href="#b" x="9.996"/><text y="1.67" class="c">❯</text><text x="2.004" y="1.67" class="e">node</text><text x="7.014" y="1.67" class="e">.</text><text x="9.018" y="1.67" class="e">t</text><text x="126.252" y="1.67" class="d">mbox-attachment-extract/git/master</text></svg><svg x="1944"><use xlink:href="#a"/><use xlink:href="#b" x="10.996"/><text y="1.67" class="c">❯</text><text x="2.004" y="1.67" class="e">node</text><text x="7.014" y="1.67" class="e">.</text><text x="9.018" y="1.67" class="e">te</text><text x="126.252" y="1.67" class="d">mbox-attachment-extract/git/master</text></svg><svg x="2106"><use xlink:href="#a"/><use xlink:href="#b" x="11.996"/><text y="1.67" class="c">❯</text><text x="2.004" y="1.67" class="e">node</text><text x="7.014" y="1.67" class="e">.</text><text x="9.018" y="1.67" class="e">tes</text><text x="126.252" y="1.67" class="d">mbox-attachment-extract/git/master</text></svg><svg x="2268"><use xlink:href="#a"/><use xlink:href="#b" x="12.996"/><text y="1.67" class="c">❯</text><text x="2.004" y="1.67" class="e">node</text><text x="7.014" y="1.67" class="e">.</text><text x="9.018" y="1.67" class="e">test</text><text x="126.252" y="1.67" class="d">mbox-attachment-extract/git/master</text></svg><svg x="2430"><use xlink:href="#a"/><use xlink:href="#b" x="13.996"/><text y="1.67" class="c">❯</text><text x="2.004" y="1.67" class="e">node</text><text x="7.014" y="1.67" class="e">.</text><text x="9.018" y="1.67" class="e">tests</text><text x="126.252" y="1.67" class="d">mbox-attachment-extract/git/master</text></svg><svg x="2592"><use xlink:href="#a"/><use xlink:href="#b" x="14.996"/><text y="1.67" class="c">❯</text><text x="2.004" y="1.67" class="e">node</text><text x="7.014" y="1.67" class="e">.</text><text x="9.018" y="1.67" class="e">tests/</text><text x="126.252" y="1.67" class="d">mbox-attachment-extract/git/master</text></svg><svg x="2754"><use xlink:href="#a"/><use xlink:href="#b" x="15.996"/><text y="1.67" class="c">❯</text><text x="2.004" y="1.67" class="e">node</text><text x="7.014" y="1.67" class="e">.</text><text x="9.018" y="1.67" class="e">tests/s</text><text x="126.252" y="1.67" class="d">mbox-attachment-extract/git/master</text></svg><svg x="2916"><use xlink:href="#a"/><use xlink:href="#b" x="16.996"/><text y="1.67" class="c">❯</text><text x="2.004" y="1.67" class="e">node</text><text x="7.014" y="1.67" class="e">.</text><text x="9.018" y="1.67" class="e">tests/sa</text><text x="126.252" y="1.67" class="d">mbox-attachment-extract/git/master</text></svg><svg x="3078"><use xlink:href="#a"/><use xlink:href="#b" x="17.996"/><text y="1.67" class="c">❯</text><text x="2.004" y="1.67" class="e">node</text><text x="7.014" y="1.67" class="e">.</text><text x="9.018" y="1.67" class="e">tests/sam</text><text x="126.252" y="1.67" class="d">mbox-attachment-extract/git/master</text></svg><svg x="3240"><use xlink:href="#a"/><use xlink:href="#b" x="18.996"/><text y="1.67" class="c">❯</text><text x="2.004" y="1.67" class="e">node</text><text x="7.014" y="1.67" class="e">.</text><text x="9.018" y="1.67" class="e">tests/samp</text><text x="126.252" y="1.67" class="d">mbox-attachment-extract/git/master</text></svg><svg x="3402"><use xlink:href="#a"/><use xlink:href="#b" x="19.996"/><text y="1.67" class="c">❯</text><text x="2.004" y="1.67" class="e">node</text><text x="7.014" y="1.67" class="e">.</text><text x="9.018" y="1.67" class="e">tests/sampl</text><text x="126.252" y="1.67" class="d">mbox-attachment-extract/git/master</text></svg><svg x="3564"><use xlink:href="#a"/><use xlink:href="#b" x="20.996"/><text y="1.67" class="c">❯</text><text x="2.004" y="1.67" class="e">node</text><text x="7.014" y="1.67" class="e">.</text><text x="9.018" y="1.67" class="e">tests/sample</text><text x="126.252" y="1.67" class="d">mbox-attachment-extract/git/master</text></svg><svg x="3726"><use xlink:href="#a"/><use xlink:href="#b" x="21.996"/><text y="1.67" class="c">❯</text><text x="2.004" y="1.67" class="e">node</text><text x="7.014" y="1.67" class="e">.</text><text x="9.018" y="1.67" class="e">tests/sample.</text><text x="126.252" y="1.67" class="d">mbox-attachment-extract/git/master</text></svg><svg x="3888"><use xlink:href="#a"/><use xlink:href="#b" x="22.996"/><text y="1.67" class="c">❯</text><text x="2.004" y="1.67" class="e">node</text><text x="7.014" y="1.67" class="e">.</text><text x="9.018" y="1.67" class="e">tests/sample.m</text><text x="126.252" y="1.67" class="d">mbox-attachment-extract/git/master</text></svg><svg x="4050"><use xlink:href="#a"/><use xlink:href="#b" x="23.996"/><text y="1.67" class="c">❯</text><text x="2.004" y="1.67" class="e">node</text><text x="7.014" y="1.67" class="e">.</text><text x="9.018" y="1.67" class="e">tests/sample.mb</text><text x="126.252" y="1.67" class="d">mbox-attachment-extract/git/master</text></svg><svg x="4212"><use xlink:href="#a"/><use xlink:href="#b" x="24.996"/><text y="1.67" class="c">❯</text><text x="2.004" y="1.67" class="e">node</text><text x="7.014" y="1.67" class="e">.</text><text x="9.018" y="1.67" class="e">tests/sample.mbo</text><text x="126.252" y="1.67" class="d">mbox-attachment-extract/git/master</text></svg><svg x="4374"><use xlink:href="#a"/><use xlink:href="#b" x="25.996"/><use xlink:href="#3"/></svg><svg x="4536"><use xlink:href="#a"/><use xlink:href="#b" x="26.996"/><use xlink:href="#3"/></svg><svg x="4698"><use xlink:href="#a"/><use xlink:href="#b" x="27.996"/><text y="1.67" class="c">❯</text><text x="2.004" y="1.67" class="e">node</text><text x="7.014" y="1.67" class="e">.</text><text x="9.018" y="1.67" class="e">tests/sample.mbox</text><text x="27.054" y="1.67" class="e">.</text><text x="126.252" y="1.67" class="d">mbox-attachment-extract/git/master</text></svg><svg x="4860"><use xlink:href="#a"/><use xlink:href="#b" x="28.996"/><text y="1.67" class="c">❯</text><text x="2.004" y="1.67" class="e">node</text><text x="7.014" y="1.67" class="e">.</text><text x="9.018" y="1.67" class="e">tests/sample.mbox</text><text x="27.054" y="1.67" class="e">./</text><text x="126.252" y="1.67" class="d">mbox-attachment-extract/git/master</text></svg><svg x="5022"><use xlink:href="#a"/><use xlink:href="#b" x="29.996"/><text y="1.67" class="c">❯</text><text x="2.004" y="1.67" class="e">node</text><text x="7.014" y="1.67" class="e">.</text><text x="9.018" y="1.67" class="e">tests/sample.mbox</text><text x="27.054" y="1.67" class="e">./a</text><text x="126.252" y="1.67" class="d">mbox-attachment-extract/git/master</text></svg><svg x="5184"><use xlink:href="#a"/><use xlink:href="#b" x="30.996"/><text y="1.67" class="c">❯</text><text x="2.004" y="1.67" class="e">node</text><text x="7.014" y="1.67" class="e">.</text><text x="9.018" y="1.67" class="e">tests/sample.mbox</text><text x="27.054" y="1.67" class="e">./at</text><text x="126.252" y="1.67" class="d">mbox-attachment-extract/git/master</text></svg><svg x="5346"><use xlink:href="#a"/><use xlink:href="#b" x="31.996"/><use xlink:href="#4"/></svg><svg x="5508"><use xlink:href="#a"/><use xlink:href="#b" x="31.996"/><use xlink:href="#4"/></svg><svg x="5670"><use xlink:href="#a"/><use xlink:href="#b" x="-.004" y="2.146"/><use xlink:href="#4"/></svg><svg x="5832"><use xlink:href="#a"/><use xlink:href="#b" x="-.004" y="2.146"/><use xlink:href="#4"/></svg><svg x="5994"><use xlink:href="#a"/><use xlink:href="#4"/></svg><svg x="6156"><use xlink:href="#a"/><use xlink:href="#4"/><use xlink:href="#5" y="2.171"/><use xlink:href="#6" y="4.342"/><use xlink:href="#7" y="6.513"/></svg><svg x="6318"><use xlink:href="#a"/><use xlink:href="#4"/><use xlink:href="#8" y="2.171"/><use xlink:href="#6" y="4.342"/><use xlink:href="#7" y="6.513"/></svg><svg x="6480"><use xlink:href="#a"/><use xlink:href="#4"/><use xlink:href="#8" y="2.171"/><use xlink:href="#6" y="4.342"/><use xlink:href="#7" y="6.513"/></svg><svg x="6642"><use xlink:href="#a"/><use xlink:href="#4"/><use xlink:href="#8" y="2.171"/></svg><svg x="6804"><use xlink:href="#a"/><use xlink:href="#4"/></svg><svg x="6966"><use xlink:href="#a"/><use xlink:href="#4"/><use xlink:href="#9" y="2.171"/><use xlink:href="#6" y="4.342"/><use xlink:href="#7" y="6.513"/></svg><svg x="7128"><use xlink:href="#a"/><use xlink:href="#4"/><use xlink:href="#9" y="2.171"/><use xlink:href="#6" y="4.342"/><use xlink:href="#7" y="6.513"/></svg><svg x="7290"><use xlink:href="#a"/><use xlink:href="#4"/></svg><svg x="7452"><use xlink:href="#a"/><use xlink:href="#4"/><use xlink:href="#10" y="2.171"/><use xlink:href="#6" y="4.342"/><use xlink:href="#7" y="6.513"/></svg><svg x="7614"><use xlink:href="#a"/><use xlink:href="#4"/><use xlink:href="#10" y="2.171"/><use xlink:href="#6" y="4.342"/></svg><svg x="7776"><use xlink:href="#a"/><use xlink:href="#4"/></svg><svg x="7938"><use xlink:href="#a"/><use xlink:href="#4"/><use xlink:href="#11" y="2.171"/><use xlink:href="#12" y="4.342"/><use xlink:href="#13" y="6.513"/></svg><svg x="8100"><use xlink:href="#a"/><use xlink:href="#4"/><use xlink:href="#11" y="2.171"/><use xlink:href="#12" y="4.342"/><use xlink:href="#13" y="6.513"/></svg><svg x="8262"><use xlink:href="#a"/><use xlink:href="#4"/><use xlink:href="#14" y="2.171"/><use xlink:href="#12" y="4.342"/><text x="2.004" y="8.183" class="f">ATTACHMENTS:</text><text x="15.03" y="8.183" class="e">2</text></svg><svg x="8424"><use xlink:href="#a"/><use xlink:href="#4"/><use xlink:href="#14" y="2.171"/><use xlink:href="#12" y="4.342"/></svg><svg x="8586"><use xlink:href="#a"/><use xlink:href="#4"/><use xlink:href="#15" y="2.171"/><use xlink:href="#12" y="4.342"/><use xlink:href="#16" y="6.513"/></svg><svg x="8748"><use xlink:href="#a"/><use xlink:href="#4"/><use xlink:href="#15" y="2.171"/><use xlink:href="#12" y="4.342"/><use xlink:href="#16" y="6.513"/></svg><svg x="8910"><use xlink:href="#a"/><use xlink:href="#4"/><use xlink:href="#17" y="2.171"/><use xlink:href="#12" y="4.342"/><use xlink:href="#16" y="6.513"/></svg><svg x="9072"><use xlink:href="#a"/><use xlink:href="#4"/><use xlink:href="#17" y="2.171"/><use xlink:href="#12" y="4.342"/><use xlink:href="#16" y="6.513"/></svg><svg x="9234"><use xlink:href="#a"/><use xlink:href="#4"/></svg><svg x="9396"><use xlink:href="#a"/><use xlink:href="#4"/><use xlink:href="#18" y="2.171"/><use xlink:href="#12" y="4.342"/><use xlink:href="#19" y="6.513"/></svg><svg x="9558"><use xlink:href="#a"/><use xlink:href="#4"/><use xlink:href="#18" y="2.171"/><use xlink:href="#12" y="4.342"/><use xlink:href="#19" y="6.513"/></svg><svg x="9720"><use xlink:href="#a"/><use xlink:href="#4"/></svg><svg x="9882"><use xlink:href="#a"/><use xlink:href="#4"/><use xlink:href="#20" y="2.171"/><use xlink:href="#12" y="4.342"/><use xlink:href="#21" y="6.513"/></svg><svg x="10044"><use xlink:href="#a"/><use xlink:href="#4"/><use xlink:href="#20" y="2.171"/><use xlink:href="#12" y="4.342"/><use xlink:href="#21" y="6.513"/></svg><svg x="10206"><use xlink:href="#a"/><use xlink:href="#4"/><use xlink:href="#5" y="2.171"/><use xlink:href="#12" y="4.342"/><use xlink:href="#22" y="6.513"/></svg><svg x="10368"><use xlink:href="#a"/><use xlink:href="#4"/><use xlink:href="#5" y="2.171"/><use xlink:href="#12" y="4.342"/><use xlink:href="#22" y="6.513"/></svg><svg x="10530"><use xlink:href="#a"/><use xlink:href="#4"/><use xlink:href="#5" y="2.171"/><use xlink:href="#12" y="4.342"/></svg><svg x="10692"><use xlink:href="#a"/><use xlink:href="#4"/><use xlink:href="#8" y="2.171"/><use xlink:href="#12" y="4.342"/><use xlink:href="#22" y="6.513"/></svg><svg x="10854"><use xlink:href="#a"/><use xlink:href="#4"/><use xlink:href="#8" y="2.171"/><use xlink:href="#12" y="4.342"/><use xlink:href="#22" y="6.513"/></svg><svg x="11016"><use xlink:href="#a"/><use xlink:href="#4"/></svg><svg x="11178"><use xlink:href="#a"/><use xlink:href="#4"/><use xlink:href="#9" y="2.171"/><use xlink:href="#12" y="4.342"/><use xlink:href="#22" y="6.513"/></svg><svg x="11340"><use xlink:href="#a"/><use xlink:href="#4"/><use xlink:href="#9" y="2.171"/><use xlink:href="#12" y="4.342"/><use xlink:href="#22" y="6.513"/></svg><svg x="11502"><use xlink:href="#a"/><use xlink:href="#4"/></svg><svg x="11664"><use xlink:href="#a"/><use xlink:href="#b" x="-.004" y="10.83"/><use xlink:href="#4"/><use xlink:href="#23" y="2.171"/><use xlink:href="#24" y="4.342"/><use xlink:href="#25" y="6.513"/></svg><svg x="11826"><use xlink:href="#a"/><use xlink:href="#b" x="-.004" y="10.83"/><use xlink:href="#4"/><use xlink:href="#23" y="2.171"/><use xlink:href="#24" y="4.342"/><use xlink:href="#25" y="6.513"/></svg><svg x="11988"><use xlink:href="#a"/><use xlink:href="#b" x="-.004" y="10.83"/><use xlink:href="#4"/><use xlink:href="#23" y="2.171"/><use xlink:href="#24" y="4.342"/><use xlink:href="#25" y="6.513"/></svg><svg x="12150"><use xlink:href="#a"/><use xlink:href="#b" x="-.004" y="10.83"/><use xlink:href="#4"/><use xlink:href="#23" y="2.171"/><use xlink:href="#24" y="4.342"/><use xlink:href="#25" y="6.513"/></svg><svg x="12312"><use xlink:href="#a"/><use xlink:href="#b" x="1.996" y="10.83"/><use xlink:href="#4"/><use xlink:href="#23" y="2.171"/><use xlink:href="#24" y="4.342"/><use xlink:href="#25" y="6.513"/><use xlink:href="#1" y="10.855"/></svg><svg x="12474"><use xlink:href="#a"/><use xlink:href="#b" x="1.996" y="10.83"/><use xlink:href="#4"/><use xlink:href="#23" y="2.171"/><use xlink:href="#24" y="4.342"/><use xlink:href="#25" y="6.513"/><use xlink:href="#1" y="10.855"/></svg><svg x="12636"><use xlink:href="#a"/><use xlink:href="#b" x="-.004" y="13.001"/><use xlink:href="#4"/><use xlink:href="#23" y="2.171"/><use xlink:href="#24" y="4.342"/><use xlink:href="#25" y="6.513"/><use xlink:href="#1" y="10.855"/></svg></svg></g></g></svg></svg>