<svg xmlns="http://www.w3.org/2000/svg" xmlns:xlink="http://www.w3.org/1999/xlink" width="950" height="369.07"><rect width="950" height="369.07" rx="0" ry="0" class="a"/><svg height="369.07" viewBox="0 0 95 36.907" width="950" xmlns="http://www.w3.org/2000/svg" xmlns:xlink="http://www.w3.org/1999/xlink"><style>@keyframes l{0%{transform:translateX(0)}32.4%{transform:translateX(-190px)}34.8%{transform:translateX(-380px)}40.3%{transform:translateX(-2850px)}40.4%{transform:translateX(-4465px)}51.1%{transform:translateX(-4750px)}57.5%{transform:translateX(-4940px)}58.4%{transform:translateX(-5415px)}59.2%{transform:translateX(-5700px)}60.8%{transform:translateX(-5985px)}61.7%{transform:translateX(-6365px)}62.6%{transform:translateX(-6650px)}63.5%{transform:translateX(-6935px)}64.6%{transform:translateX(-7125px)}65.5%{transform:translateX(-7410px)}66.4%{transform:translateX(-7790px)}67.3%{transform:translateX(-8075px)}68.2%{transform:translateX(-8360px)}68.4%{transform:translateX(-8550px)}70%{transform:translateX(-8740px)}to{transform:translateX(-8835px)}}.a{fill:#282d35}.c{fill:#5faf5f;font-weight:700}.d{fill:#6c6c6c}.e{fill:#b9c0cb}.f{fill:#66c2cd}.g,.i{fill:#b9c0cb;font-weight:700}.i{fill:#a8cc8c}</style><g font-size="1.67" font-family="Monaco,Consolas,Menlo,'Bitstream Vera Sans Mono','Powerline Symbols',monospace"><defs><symbol id="1"><text y="1.67" class="c">❯</text><text x="58.116" y="1.67" class="d">mbox-attachment-extract/git/master</text><text x="93.186" y="1.67" class="d">!</text></symbol><symbol id="2"><text y="1.67" class="c">❯</text><text x="2.004" y="1.67" class="e">mbox-attachment-extract</text><text x="26.052" y="1.67" class="e">tests/sample.mbox</text><text x="58.116" y="1.67" class="d">mbox-attachment-extract/git/master</text><text x="93.186" y="1.67" class="d">!</text></symbol><symbol id="3"><text y="1.67" class="c">❯</text><text x="2.004" y="1.67" class="e">mbox-attachment-extract</text><text x="26.052" y="1.67" class="e">tests/sample.mbox</text><text x="44.088" y="1.67" class="e">./att</text><text x="58.116" y="1.67" class="d">mbox-attachment-extract/git/master</text><text x="93.186" y="1.67" class="d">!</text></symbol><symbol id="4"><text y="1.67" class="c">❯</text><text x="2.004" y="1.67" class="e">mbox-attachment-extract</text><text x="26.052" y="1.67" class="e">tests/sample.mbox</text><text x="44.088" y="1.67" class="e">./att</text><text x="50.1" y="1.67" class="e">-s</text><text x="58.116" y="1.67" class="d">mbox-attachment-extract/git/master</text><text x="93.186" y="1.67" class="d">!</text></symbol><symbol id="5"><text y="1.67" class="f">⠋</text><text x="2.004" y="1.67" class="g">mbox-attachment-extract</text></symbol><symbol id="6"><text x="2.004" y="1.67" class="f">EMAIL:</text><text x="9.018" y="1.67" class="e">1</text></symbol><symbol id="7"><text x="2.004" y="1.67" class="f">ATTACHMENTS:</text><text x="15.03" y="1.67" class="e">0</text></symbol><symbol id="8"><text y="1.67" class="f">⠙</text><text x="2.004" y="1.67" class="g">mbox-attachment-extract</text></symbol><symbol id="9"><text y="1.67" class="f">⠹</text><text x="2.004" y="1.67" class="g">mbox-attachment-extract</text></symbol><symbol id="10"><text y="1.67" class="f">⠸</text><text x="2.004" y="1.67" class="g">mbox-attachment-extract</text></symbol><symbol id="11"><text y="1.67" class="f">⠼</text><text x="2.004" y="1.67" class="g">mbox-attachment-extract</text></symbol><symbol id="12"><text x="2.004" y="1.67" class="f">EMAIL:</text><text x="9.018" y="1.67" class="e">8</text></symbol><symbol id="13"><text x="2.004" y="1.67" class="f">ATTACHMENTS:</text><text x="15.03" y="1.67" class="e">2</text></symbol><symbol id="14"><text y="1.67" class="f">⠴</text><text x="2.004" y="1.67" class="g">mbox-attachment-extract</text></symbol><symbol id="15"><text x="2.004" y="1.67" class="f">ATTACHMENTS:</text><text x="15.03" y="1.67" class="e">3</text></symbol><symbol id="16"><text y="1.67" class="f">⠦</text><text x="2.004" y="1.67" class="g">mbox-attachment-extract</text></symbol><symbol id="17"><text y="1.67" class="f">⠧</text><text x="2.004" y="1.67" class="g">mbox-attachment-extract</text></symbol><symbol id="18"><text y="1.67" class="f">⠇</text><text x="2.004" y="1.67" class="g">mbox-attachment-extract</text></symbol><symbol id="19"><text x="2.004" y="1.67" class="f">ATTACHMENTS:</text><text x="15.03" y="1.67" class="e">6</text></symbol><symbol id="20"><text y="1.67" class="f">⠏</text><text x="2.004" y="1.67" class="g">mbox-attachment-extract</text></symbol><symbol id="21"><text y="1.67" fill="#a8cc8c">✔</text><text x="2.004" y="1.67" class="i">All</text><text x="6.012" y="1.67" class="i">files</text><text x="12.024" y="1.67" class="i">extracted!</text></symbol><symbol id="22"><text x="2.004" y="1.67" class="e">Total</text><text x="8.016" y="1.67" class="e">email</text><text x="14.028" y="1.67" class="e">parsed:</text><text x="22.044" y="1.67" class="g">8</text></symbol><symbol id="23"><text x="2.004" y="1.67" class="e">Total</text><text x="8.016" y="1.67" class="e">files</text><text x="14.028" y="1.67" class="e">extracted:</text><text x="25.05" y="1.67" class="g">7</text></symbol><symbol id="a"><path fill="transparent" d="M0 0h95v17H0z"/></symbol><symbol id="b"><path fill="#6f7683" d="M0 0h1.102v2.171H0z"/></symbol></defs><path class="a" d="M0 0h95v36.907H0z"/><g style="animation-duration:9.138962s;animation-iteration-count:infinite;animation-name:l;animation-timing-function:steps(1,end)"><svg width="8930"><svg><use xlink:href="#a"/><use xlink:href="#b" x="-.004"/></svg><svg x="95"><use xlink:href="#a"/><use xlink:href="#b" x="-.004"/></svg><svg x="190"><use xlink:href="#a"/><use xlink:href="#b" x="-.004"/></svg><svg x="285"><use xlink:href="#a"/><use xlink:href="#b" x="1.996"/><use xlink:href="#1"/></svg><svg x="380"><use xlink:href="#a"/><use xlink:href="#b" x="1.996"/><use xlink:href="#1"/></svg><svg x="475"><use xlink:href="#a"/><use xlink:href="#b" x="2.996"/><text y="1.67" class="c">❯</text><text x="2.004" y="1.67" class="e">m</text><text x="58.116" y="1.67" class="d">mbox-attachment-extract/git/master</text><text x="93.186" y="1.67" class="d">!</text></svg><svg x="570"><use xlink:href="#a"/><use xlink:href="#b" x="3.996"/><text y="1.67" class="c">❯</text><text x="2.004" y="1.67" class="e">mb</text><text x="58.116" y="1.67" class="d">mbox-attachment-extract/git/master</text><text x="93.186" y="1.67" class="d">!</text></svg><svg x="665"><use xlink:href="#a"/><use xlink:href="#b" x="4.996"/><text y="1.67" class="c">❯</text><text x="2.004" y="1.67" class="e">mbo</text><text x="58.116" y="1.67" class="d">mbox-attachment-extract/git/master</text><text x="93.186" y="1.67" class="d">!</text></svg><svg x="760"><use xlink:href="#a"/><use xlink:href="#b" x="5.996"/><text y="1.67" class="c">❯</text><text x="2.004" y="1.67" class="e">mbox</text><text x="58.116" y="1.67" class="d">mbox-attachment-extract/git/master</text><text x="93.186" y="1.67" class="d">!</text></svg><svg x="855"><use xlink:href="#a"/><use xlink:href="#b" x="6.996"/><text y="1.67" class="c">❯</text><text x="2.004" y="1.67" class="e">mbox-</text><text x="58.116" y="1.67" class="d">mbox-attachment-extract/git/master</text><text x="93.186" y="1.67" class="d">!</text></svg><svg x="950"><use xlink:href="#a"/><use xlink:href="#b" x="7.996"/><text y="1.67" class="c">❯</text><text x="2.004" y="1.67" class="e">mbox-a</text><text x="58.116" y="1.67" class="d">mbox-attachment-extract/git/master</text><text x="93.186" y="1.67" class="d">!</text></svg><svg x="1045"><use xlink:href="#a"/><use xlink:href="#b" x="8.996"/><text y="1.67" class="c">❯</text><text x="2.004" y="1.67" class="e">mbox-at</text><text x="58.116" y="1.67" class="d">mbox-attachment-extract/git/master</text><text x="93.186" y="1.67" class="d">!</text></svg><svg x="1140"><use xlink:href="#a"/><use xlink:href="#b" x="9.996"/><text y="1.67" class="c">❯</text><text x="2.004" y="1.67" class="e">mbox-att</text><text x="58.116" y="1.67" class="d">mbox-attachment-extract/git/master</text><text x="93.186" y="1.67" class="d">!</text></svg><svg x="1235"><use xlink:href="#a"/><use xlink:href="#b" x="10.996"/><text y="1.67" class="c">❯</text><text x="2.004" y="1.67" class="e">mbox-atta</text><text x="58.116" y="1.67" class="d">mbox-attachment-extract/git/master</text><text x="93.186" y="1.67" class="d">!</text></svg><svg x="1330"><use xlink:href="#a"/><use xlink:href="#b" x="11.996"/><text y="1.67" class="c">❯</text><text x="2.004" y="1.67" class="e">mbox-attac</text><text x="58.116" y="1.67" class="d">mbox-attachment-extract/git/master</text><text x="93.186" y="1.67" class="d">!</text></svg><svg x="1425"><use xlink:href="#a"/><use xlink:href="#b" x="12.996"/><text y="1.67" class="c">❯</text><text x="2.004" y="1.67" class="e">mbox-attach</text><text x="58.116" y="1.67" class="d">mbox-attachment-extract/git/master</text><text x="93.186" y="1.67" class="d">!</text></svg><svg x="1520"><use xlink:href="#a"/><use xlink:href="#b" x="14.996"/><text y="1.67" class="c">❯</text><text x="2.004" y="1.67" class="e">mbox-attachme</text><text x="58.116" y="1.67" class="d">mbox-attachment-extract/git/master</text><text x="93.186" y="1.67" class="d">!</text></svg><svg x="1615"><use xlink:href="#a"/><use xlink:href="#b" x="15.996"/><text y="1.67" class="c">❯</text><text x="2.004" y="1.67" class="e">mbox-attachmen</text><text x="58.116" y="1.67" class="d">mbox-attachment-extract/git/master</text><text x="93.186" y="1.67" class="d">!</text></svg><svg x="1710"><use xlink:href="#a"/><use xlink:href="#b" x="17.996"/><text y="1.67" class="c">❯</text><text x="2.004" y="1.67" class="e">mbox-attachment-</text><text x="58.116" y="1.67" class="d">mbox-attachment-extract/git/master</text><text x="93.186" y="1.67" class="d">!</text></svg><svg x="1805"><use xlink:href="#a"/><use xlink:href="#b" x="18.996"/><text y="1.67" class="c">❯</text><text x="2.004" y="1.67" class="e">mbox-attachment-e</text><text x="58.116" y="1.67" class="d">mbox-attachment-extract/git/master</text><text x="93.186" y="1.67" class="d">!</text></svg><svg x="1900"><use xlink:href="#a"/><use xlink:href="#b" x="19.996"/><text y="1.67" class="c">❯</text><text x="2.004" y="1.67" class="e">mbox-attachment-ex</text><text x="58.116" y="1.67" class="d">mbox-attachment-extract/git/master</text><text x="93.186" y="1.67" class="d">!</text></svg><svg x="1995"><use xlink:href="#a"/><use xlink:href="#b" x="20.996"/><text y="1.67" class="c">❯</text><text x="2.004" y="1.67" class="e">mbox-attachment-ext</text><text x="58.116" y="1.67" class="d">mbox-attachment-extract/git/master</text><text x="93.186" y="1.67" class="d">!</text></svg><svg x="2090"><use xlink:href="#a"/><use xlink:href="#b" x="22.996"/><text y="1.67" class="c">❯</text><text x="2.004" y="1.67" class="e">mbox-attachment-extra</text><text x="58.116" y="1.67" class="d">mbox-attachment-extract/git/master</text><text x="93.186" y="1.67" class="d">!</text></svg><svg x="2185"><use xlink:href="#a"/><use xlink:href="#b" x="25.996"/><text y="1.67" class="c">❯</text><text x="2.004" y="1.67" class="e">mbox-attachment-extract</text><text x="58.116" y="1.67" class="d">mbox-attachment-extract/git/master</text><text x="93.186" y="1.67" class="d">!</text></svg><svg x="2280"><use xlink:href="#a"/><use xlink:href="#b" x="26.996"/><text y="1.67" class="c">❯</text><text x="2.004" y="1.67" class="e">mbox-attachment-extract</text><text x="26.052" y="1.67" class="e">t</text><text x="58.116" y="1.67" class="d">mbox-attachment-extract/git/master</text><text x="93.186" y="1.67" class="d">!</text></svg><svg x="2375"><use xlink:href="#a"/><use xlink:href="#b" x="27.996"/><text y="1.67" class="c">❯</text><text x="2.004" y="1.67" class="e">mbox-attachment-extract</text><text x="26.052" y="1.67" class="e">te</text><text x="58.116" y="1.67" class="d">mbox-attachment-extract/git/master</text><text x="93.186" y="1.67" class="d">!</text></svg><svg x="2470"><use xlink:href="#a"/><use xlink:href="#b" x="28.996"/><text y="1.67" class="c">❯</text><text x="2.004" y="1.67" class="e">mbox-attachment-extract</text><text x="26.052" y="1.67" class="e">tes</text><text x="58.116" y="1.67" class="d">mbox-attachment-extract/git/master</text><text x="93.186" y="1.67" class="d">!</text></svg><svg x="2565"><use xlink:href="#a"/><use xlink:href="#b" x="29.996"/><text y="1.67" class="c">❯</text><text x="2.004" y="1.67" class="e">mbox-attachment-extract</text><text x="26.052" y="1.67" class="e">test</text><text x="58.116" y="1.67" class="d">mbox-attachment-extract/git/master</text><text x="93.186" y="1.67" class="d">!</text></svg><svg x="2660"><use xlink:href="#a"/><use xlink:href="#b" x="30.996"/><text y="1.67" class="c">❯</text><text x="2.004" y="1.67" class="e">mbox-attachment-extract</text><text x="26.052" y="1.67" class="e">tests</text><text x="58.116" y="1.67" class="d">mbox-attachment-extract/git/master</text><text x="93.186" y="1.67" class="d">!</text></svg><svg x="2755"><use xlink:href="#a"/><use xlink:href="#b" x="31.996"/><text y="1.67" class="c">❯</text><text x="2.004" y="1.67" class="e">mbox-attachment-extract</text><text x="26.052" y="1.67" class="e">tests/</text><text x="58.116" y="1.67" class="d">mbox-attachment-extract/git/master</text><text x="93.186" y="1.67" class="d">!</text></svg><svg x="2850"><use xlink:href="#a"/><use xlink:href="#b" x="32.996"/><text y="1.67" class="c">❯</text><text x="2.004" y="1.67" class="e">mbox-attachment-extract</text><text x="26.052" y="1.67" class="e">tests/s</text><text x="58.116" y="1.67" class="d">mbox-attachment-extract/git/master</text><text x="93.186" y="1.67" class="d">!</text></svg><svg x="2945"><use xlink:href="#a"/><use xlink:href="#b" x="33.996"/><text y="1.67" class="c">❯</text><text x="2.004" y="1.67" class="e">mbox-attachment-extract</text><text x="26.052" y="1.67" class="e">tests/sa</text><text x="58.116" y="1.67" class="d">mbox-attachment-extract/git/master</text><text x="93.186" y="1.67" class="d">!</text></svg><svg x="3040"><use xlink:href="#a"/><use xlink:href="#b" x="34.996"/><text y="1.67" class="c">❯</text><text x="2.004" y="1.67" class="e">mbox-attachment-extract</text><text x="26.052" y="1.67" class="e">tests/sam</text><text x="58.116" y="1.67" class="d">mbox-attachment-extract/git/master</text><text x="93.186" y="1.67" class="d">!</text></svg><svg x="3135"><use xlink:href="#a"/><use xlink:href="#b" x="36.996"/><text y="1.67" class="c">❯</text><text x="2.004" y="1.67" class="e">mbox-attachment-extract</text><text x="26.052" y="1.67" class="e">tests/sampl</text><text x="58.116" y="1.67" class="d">mbox-attachment-extract/git/master</text><text x="93.186" y="1.67" class="d">!</text></svg><svg x="3230"><use xlink:href="#a"/><use xlink:href="#b" x="37.996"/><text y="1.67" class="c">❯</text><text x="2.004" y="1.67" class="e">mbox-attachment-extract</text><text x="26.052" y="1.67" class="e">tests/sample</text><text x="58.116" y="1.67" class="d">mbox-attachment-extract/git/master</text><text x="93.186" y="1.67" class="d">!</text></svg><svg x="3325"><use xlink:href="#a"/><use xlink:href="#b" x="38.996"/><text y="1.67" class="c">❯</text><text x="2.004" y="1.67" class="e">mbox-attachment-extract</text><text x="26.052" y="1.67" class="e">tests/sample.</text><text x="58.116" y="1.67" class="d">mbox-attachment-extract/git/master</text><text x="93.186" y="1.67" class="d">!</text></svg><svg x="3420"><use xlink:href="#a"/><use xlink:href="#b" x="39.996"/><text y="1.67" class="c">❯</text><text x="2.004" y="1.67" class="e">mbox-attachment-extract</text><text x="26.052" y="1.67" class="e">tests/sample.m</text><text x="58.116" y="1.67" class="d">mbox-attachment-extract/git/master</text><text x="93.186" y="1.67" class="d">!</text></svg><svg x="3515"><use xlink:href="#a"/><use xlink:href="#b" x="40.996"/><text y="1.67" class="c">❯</text><text x="2.004" y="1.67" class="e">mbox-attachment-extract</text><text x="26.052" y="1.67" class="e">tests/sample.mb</text><text x="58.116" y="1.67" class="d">mbox-attachment-extract/git/master</text><text x="93.186" y="1.67" class="d">!</text></svg><svg x="3610"><use xlink:href="#a"/><use xlink:href="#b" x="41.996"/><text y="1.67" class="c">❯</text><text x="2.004" y="1.67" class="e">mbox-attachment-extract</text><text x="26.052" y="1.67" class="e">tests/sample.mbo</text><text x="58.116" y="1.67" class="d">mbox-attachment-extract/git/master</text><text x="93.186" y="1.67" class="d">!</text></svg><svg x="3705"><use xlink:href="#a"/><use xlink:href="#b" x="42.996"/><use xlink:href="#2"/></svg><svg x="3800"><use xlink:href="#a"/><use xlink:href="#b" x="43.996"/><use xlink:href="#2"/></svg><svg x="3895"><use xlink:href="#a"/><use xlink:href="#b" x="45.996"/><text y="1.67" class="c">❯</text><text x="2.004" y="1.67" class="e">mbox-attachment-extract</text><text x="26.052" y="1.67" class="e">tests/sample.mbox</text><text x="44.088" y="1.67" class="e">./</text><text x="58.116" y="1.67" class="d">mbox-attachment-extract/git/master</text><text x="93.186" y="1.67" class="d">!</text></svg><svg x="3990"><use xlink:href="#a"/><use xlink:href="#b" x="46.996"/><text y="1.67" class="c">❯</text><text x="2.004" y="1.67" class="e">mbox-attachment-extract</text><text x="26.052" y="1.67" class="e">tests/sample.mbox</text><text x="44.088" y="1.67" class="e">./a</text><text x="58.116" y="1.67" class="d">mbox-attachment-extract/git/master</text><text x="93.186" y="1.67" class="d">!</text></svg><svg x="4085"><use xlink:href="#a"/><use xlink:href="#b" x="47.996"/><text y="1.67" class="c">❯</text><text x="2.004" y="1.67" class="e">mbox-attachment-extract</text><text x="26.052" y="1.67" class="e">tests/sample.mbox</text><text x="44.088" y="1.67" class="e">./at</text><text x="58.116" y="1.67" class="d">mbox-attachment-extract/git/master</text><text x="93.186" y="1.67" class="d">!</text></svg><svg x="4180"><use xlink:href="#a"/><use xlink:href="#b" x="48.996"/><use xlink:href="#3"/></svg><svg x="4275"><use xlink:href="#a"/><use xlink:href="#b" x="49.996"/><use xlink:href="#3"/></svg><svg x="4370"><use xlink:href="#a"/><use xlink:href="#b" x="50.996"/><text y="1.67" class="c">❯</text><text x="2.004" y="1.67" class="e">mbox-attachment-extract</text><text x="26.052" y="1.67" class="e">tests/sample.mbox</text><text x="44.088" y="1.67" class="e">./att</text><text x="50.1" y="1.67" class="e">-</text><text x="58.116" y="1.67" class="d">mbox-attachment-extract/git/master</text><text x="93.186" y="1.67" class="d">!</text></svg><svg x="4465"><use xlink:href="#a"/><use xlink:href="#b" x="51.996"/><use xlink:href="#4"/></svg><svg x="4560"><use xlink:href="#a"/><use xlink:href="#b" x="51.996"/><use xlink:href="#4"/></svg><svg x="4655"><use xlink:href="#a"/><use xlink:href="#b" x="-.004" y="2.146"/><use xlink:href="#4"/></svg><svg x="4750"><use xlink:href="#a"/><use xlink:href="#b" x="-.004" y="2.146"/><use xlink:href="#4"/></svg><svg x="4845"><use xlink:href="#a"/><use xlink:href="#4"/></svg><svg x="4940"><use xlink:href="#a"/><use xlink:href="#4"/><use xlink:href="#5" y="2.171"/><use xlink:href="#6" y="4.342"/><use xlink:href="#7" y="6.513"/></svg><svg x="5035"><use xlink:href="#a"/><use xlink:href="#4"/><use xlink:href="#5" y="2.171"/><use xlink:href="#6" y="4.342"/><use xlink:href="#7" y="6.513"/></svg><svg x="5130"><use xlink:href="#a"/><use xlink:href="#4"/><use xlink:href="#5" y="2.171"/><use xlink:href="#6" y="4.342"/><use xlink:href="#7" y="6.513"/></svg><svg x="5225"><use xlink:href="#a"/><use xlink:href="#4"/></svg><svg x="5320"><use xlink:href="#a"/><use xlink:href="#4"/></svg><svg x="5415"><use xlink:href="#a"/><use xlink:href="#4"/><use xlink:href="#8" y="2.171"/><use xlink:href="#6" y="4.342"/><use xlink:href="#7" y="6.513"/></svg><svg x="5510"><use xlink:href="#a"/><use xlink:href="#4"/><use xlink:href="#8" y="2.171"/><use xlink:href="#6" y="4.342"/><use xlink:href="#7" y="6.513"/></svg><svg x="5605"><use xlink:href="#a"/><use xlink:href="#4"/></svg><svg x="5700"><use xlink:href="#a"/><use xlink:href="#4"/><use xlink:href="#9" y="2.171"/><use xlink:href="#6" y="4.342"/><use xlink:href="#7" y="6.513"/></svg><svg x="5795"><use xlink:href="#a"/><use xlink:href="#4"/><use xlink:href="#9" y="2.171"/><use xlink:href="#6" y="4.342"/><use xlink:href="#7" y="6.513"/></svg><svg x="5890"><use xlink:href="#a"/><use xlink:href="#4"/></svg><svg x="5985"><use xlink:href="#a"/><use xlink:href="#4"/><use xlink:href="#10" y="2.171"/><use xlink:href="#6" y="4.342"/><use xlink:href="#7" y="6.513"/></svg><svg x="6080"><use xlink:href="#a"/><use xlink:href="#4"/><use xlink:href="#10" y="2.171"/><use xlink:href="#6" y="4.342"/><use xlink:href="#7" y="6.513"/></svg><svg x="6175"><use xlink:href="#a"/><use xlink:href="#4"/></svg><svg x="6270"><use xlink:href="#a"/><use xlink:href="#4"/></svg><svg x="6365"><use xlink:href="#a"/><use xlink:href="#4"/><use xlink:href="#11" y="2.171"/><use xlink:href="#12" y="4.342"/><use xlink:href="#13" y="6.513"/></svg><svg x="6460"><use xlink:href="#a"/><use xlink:href="#4"/><use xlink:href="#11" y="2.171"/><use xlink:href="#12" y="4.342"/><use xlink:href="#13" y="6.513"/></svg><svg x="6555"><use xlink:href="#a"/><use xlink:href="#4"/><use xlink:href="#11" y="2.171"/><use xlink:href="#12" y="4.342"/></svg><svg x="6650"><use xlink:href="#a"/><use xlink:href="#4"/><use xlink:href="#14" y="2.171"/><use xlink:href="#12" y="4.342"/><use xlink:href="#15" y="6.513"/></svg><svg x="6745"><use xlink:href="#a"/><use xlink:href="#4"/><use xlink:href="#14" y="2.171"/><use xlink:href="#12" y="4.342"/><use xlink:href="#15" y="6.513"/></svg><svg x="6840"><use xlink:href="#a"/><use xlink:href="#4"/></svg><svg x="6935"><use xlink:href="#a"/><use xlink:href="#4"/><use xlink:href="#16" y="2.171"/><use xlink:href="#12" y="4.342"/><use xlink:href="#15" y="6.513"/></svg><svg x="7030"><use xlink:href="#a"/><use xlink:href="#4"/><use xlink:href="#16" y="2.171"/><use xlink:href="#12" y="4.342"/><use xlink:href="#15" y="6.513"/></svg><svg x="7125"><use xlink:href="#a"/><use xlink:href="#4"/><use xlink:href="#17" y="2.171"/><use xlink:href="#12" y="4.342"/><text x="2.004" y="8.183" class="f">ATTACHMENTS:</text><text x="15.03" y="8.183" class="e">4</text></svg><svg x="7220"><use xlink:href="#a"/><use xlink:href="#4"/><use xlink:href="#17" y="2.171"/><use xlink:href="#12" y="4.342"/></svg><svg x="7315"><use xlink:href="#a"/><use xlink:href="#4"/></svg><svg x="7410"><use xlink:href="#a"/><use xlink:href="#4"/><use xlink:href="#18" y="2.171"/><use xlink:href="#12" y="4.342"/><use xlink:href="#19" y="6.513"/></svg><svg x="7505"><use xlink:href="#a"/><use xlink:href="#4"/><use xlink:href="#18" y="2.171"/><use xlink:href="#12" y="4.342"/><use xlink:href="#19" y="6.513"/></svg><svg x="7600"><use xlink:href="#a"/><use xlink:href="#4"/><use xlink:href="#18" y="2.171"/></svg><svg x="7695"><use xlink:href="#a"/><use xlink:href="#4"/><use xlink:href="#18" y="2.171"/></svg><svg x="7790"><use xlink:href="#a"/><use xlink:href="#4"/><use xlink:href="#20" y="2.171"/><use xlink:href="#12" y="4.342"/><use xlink:href="#19" y="6.513"/></svg><svg x="7885"><use xlink:href="#a"/><use xlink:href="#4"/><use xlink:href="#20" y="2.171"/><use xlink:href="#12" y="4.342"/><use xlink:href="#19" y="6.513"/></svg><svg x="7980"><use xlink:href="#a"/><use xlink:href="#4"/></svg><svg x="8075"><use xlink:href="#a"/><use xlink:href="#4"/><use xlink:href="#5" y="2.171"/><use xlink:href="#12" y="4.342"/><use xlink:href="#19" y="6.513"/></svg><svg x="8170"><use xlink:href="#a"/><use xlink:href="#4"/><use xlink:href="#5" y="2.171"/><use xlink:href="#12" y="4.342"/><use xlink:href="#19" y="6.513"/></svg><svg x="8265"><use xlink:href="#a"/><use xlink:href="#b" x="-.004" y="10.83"/><use xlink:href="#4"/><use xlink:href="#21" y="2.171"/><use xlink:href="#22" y="4.342"/><use xlink:href="#23" y="6.513"/></svg><svg x="8360"><use xlink:href="#a"/><use xlink:href="#b" x="-.004" y="10.83"/><use xlink:href="#4"/><use xlink:href="#21" y="2.171"/><use xlink:href="#22" y="4.342"/><use xlink:href="#23" y="6.513"/></svg><svg x="8455"><use xlink:href="#a"/><use xlink:href="#b" x="-.004" y="10.83"/><use xlink:href="#4"/><use xlink:href="#21" y="2.171"/><use xlink:href="#22" y="4.342"/><use xlink:href="#23" y="6.513"/></svg><svg x="8550"><use xlink:href="#a"/><use xlink:href="#b" x="-.004" y="10.83"/><use xlink:href="#4"/><use xlink:href="#21" y="2.171"/><use xlink:href="#22" y="4.342"/><use xlink:href="#23" y="6.513"/></svg><svg x="8645"><use xlink:href="#a"/><use xlink:href="#b" x="1.996" y="10.83"/><use xlink:href="#4"/><use xlink:href="#21" y="2.171"/><use xlink:href="#22" y="4.342"/><use xlink:href="#23" y="6.513"/><use xlink:href="#1" y="10.855"/></svg><svg x="8740"><use xlink:href="#a"/><use xlink:href="#b" x="1.996" y="10.83"/><use xlink:href="#4"/><use xlink:href="#21" y="2.171"/><use xlink:href="#22" y="4.342"/><use xlink:href="#23" y="6.513"/><use xlink:href="#1" y="10.855"/></svg><svg x="8835"><use xlink:href="#a"/><use xlink:href="#b" x="-.004" y="13.001"/><use xlink:href="#4"/><use xlink:href="#21" y="2.171"/><use xlink:href="#22" y="4.342"/><use xlink:href="#23" y="6.513"/><use xlink:href="#1" y="10.855"/></svg></svg></g></g></svg></svg>